{
    "asset" : {
        "generator" : "Khronos glTF Blender I/O v1.7.33",
        "version" : "2.0"
    },
    "scene" : 0,
    "scenes" : [
        {
            "name" : "Scene",
            "nodes" : [
                12
            ]
        }
    ],
    "nodes" : [
        {
            "name" : "Bone.005",
            "rotation" : [
                0.0013648690655827522,
                4.2112191148526226e-14,
                -1.3016405731036684e-09,
                0.9999991655349731
            ],
            "scale" : [
                1,
                0.9999999403953552,
                0.9999999403953552
            ],
            "translation" : [
                1.3851001237890487e-13,
                0.35198143124580383,
                -8.975621312856674e-08
            ]
        },
        {
            "children" : [
                0
            ],
            "name" : "Bone.004",
            "rotation" : [
                0.20903266966342926,
                -6.539347785061017e-14,
                -1.9934907413698966e-07,
                0.9779086709022522
            ],
            "scale" : [
                1,
                0.9999999403953552,
                1
            ],
            "translation" : [
                -3.0169340333244254e-13,
                0.596911609172821,
                1.4901161193847656e-07
            ]
        },
        {
            "children" : [
                1
            ],
            "name" : "Bone.003",
            "rotation" : [
                0.4716947674751282,
                2.9573652554626406e-12,
                -4.498447481182666e-07,
                0.881761908531189
            ],
            "scale" : [
                1,
                1.0000001192092896,
                1.0000001192092896
            ],
            "translation" : [
                -2.3836832572891875e-13,
                1.0735021829605103,
                -1.869174610646951e-07
            ]
        },
        {
            "children" : [
                2
            ],
            "name" : "Bone.002",
            "rotation" : [
                0.0780048593878746,
                -4.753875373353367e-07,
                -3.719588193007439e-08,
                0.9969530701637268
            ],
            "scale" : [
                1,
                0.9999999403953552,
                0.9999999403953552
            ],
            "translation" : [
                2.8852059765849605e-21,
                1.3499974012374878,
                -3.91155481338501e-08
            ]
        },
        {
            "children" : [
                3
            ],
            "name" : "Bone.001",
            "rotation" : [
                0.7057297229766846,
                -4.0351524747440914e-14,
                -4.035153491183628e-14,
                0.7084811925888062
            ],
            "scale" : [
                1,
                0.9999999403953552,
                0.9999999403953552
            ],
            "translation" : [
                -3.552713678800501e-15,
                1,
                -7.888550747690317e-31
            ]
        },
        {
            "children" : [
                4
            ],
            "name" : "Bone",
            "translation" : [
                4.8628280069351604e-08,
                -1.0369284986211369e-08,
                -4.718448384052507e-16
            ]
        },
        {
            "mesh" : 0,
            "name" : "chan de 2 v1",
            "skin" : 0
        },
        {
            "mesh" : 1,
            "name" : "chan de v1",
            "skin" : 0
        },
        {
            "mesh" : 2,
            "name" : "khop 3 v2",
            "skin" : 0
        },
        {
            "mesh" : 3,
            "name" : "khop 4 v3",
            "skin" : 0
        },
        {
            "mesh" : 4,
            "name" : "khop 5 v2",
            "skin" : 0
        },
        {
            "mesh" : 5,
            "name" : "khop 6 v1",
            "skin" : 0
        },
        {
            "children" : [
                6,
                7,
                8,
                9,
                10,
                11,
                5
            ],
            "name" : "Armature",
            "rotation" : [
                -0.7071068286895752,
                0,
                0,
                0.7071068286895752
            ],
            "scale" : [
                296.95587158203125,
                296.95587158203125,
                296.95587158203125
            ],
            "translation" : [
                0,
                -0.981353759765625,
                299.84454345703125
            ]
        }
    ],
    "materials" : [
        {
            "doubleSided" : true,
            "name" : "Steel_-_Satin.001",
            "pbrMetallicRoughness" : {
                "baseColorFactor" : [
                    0.800000011920929,
                    0.800000011920929,
                    0.800000011920929,
                    1
                ],
                "metallicFactor" : 0,
                "roughnessFactor" : 0.5
            }
        },
        {
            "doubleSided" : true,
            "name" : "Steel_-_Satin.002",
            "pbrMetallicRoughness" : {
                "baseColorFactor" : [
                    0.800000011920929,
                    0.800000011920929,
                    0.800000011920929,
                    1
                ],
                "metallicFactor" : 0,
                "roughnessFactor" : 0.5
            }
        },
        {
            "doubleSided" : true,
            "name" : "Steel_-_Satin.003",
            "pbrMetallicRoughness" : {
                "baseColorFactor" : [
                    0.800000011920929,
                    0.800000011920929,
                    0.800000011920929,
                    1
                ],
                "metallicFactor" : 0,
                "roughnessFactor" : 0.5
            }
        },
        {
            "doubleSided" : true,
            "name" : "Steel_-_Satin.005",
            "pbrMetallicRoughness" : {
                "baseColorFactor" : [
                    0.800000011920929,
                    0.800000011920929,
                    0.800000011920929,
                    1
                ],
                "metallicFactor" : 0,
                "roughnessFactor" : 0.5
            }
        },
        {
            "doubleSided" : true,
            "name" : "Steel_-_Satin.004",
            "pbrMetallicRoughness" : {
                "baseColorFactor" : [
                    0.800000011920929,
                    0.800000011920929,
                    0.800000011920929,
                    1
                ],
                "metallicFactor" : 0,
                "roughnessFactor" : 0.5
            }
        },
        {
            "doubleSided" : true,
            "name" : "Steel_-_Satin.006",
            "pbrMetallicRoughness" : {
                "baseColorFactor" : [
                    0.800000011920929,
                    0.800000011920929,
                    0.800000011920929,
                    1
                ],
                "metallicFactor" : 0,
                "roughnessFactor" : 0.5
            }
        }
    ],
    "meshes" : [
        {
            "name" : "chan de 2 v1",
            "primitives" : [
                {
                    "attributes" : {
                        "POSITION" : 0,
                        "NORMAL" : 1,
                        "TEXCOORD_0" : 2,
                        "JOINTS_0" : 3,
                        "WEIGHTS_0" : 4
                    },
                    "indices" : 5,
                    "material" : 0
                }
            ]
        },
        {
            "name" : "chan de v1",
            "primitives" : [
                {
                    "attributes" : {
                        "POSITION" : 7,
                        "NORMAL" : 8,
                        "TEXCOORD_0" : 9,
                        "JOINTS_0" : 10,
                        "WEIGHTS_0" : 11
                    },
                    "indices" : 12,
                    "material" : 1
                }
            ]
        },
        {
            "name" : "khop 3 v2",
            "primitives" : [
                {
                    "attributes" : {
                        "POSITION" : 13,
                        "NORMAL" : 14,
                        "TEXCOORD_0" : 15,
                        "JOINTS_0" : 16,
                        "WEIGHTS_0" : 17
                    },
                    "indices" : 18,
                    "material" : 2
                }
            ]
        },
        {
            "name" : "khop 4 v3",
            "primitives" : [
                {
                    "attributes" : {
                        "POSITION" : 19,
                        "NORMAL" : 20,
                        "TEXCOORD_0" : 21,
                        "JOINTS_0" : 22,
                        "WEIGHTS_0" : 23
                    },
                    "indices" : 24,
                    "material" : 3
                }
            ]
        },
        {
            "name" : "khop 5 v2",
            "primitives" : [
                {
                    "attributes" : {
                        "POSITION" : 25,
                        "NORMAL" : 26,
                        "TEXCOORD_0" : 27,
                        "JOINTS_0" : 28,
                        "WEIGHTS_0" : 29
                    },
                    "indices" : 30,
                    "material" : 4
                }
            ]
        },
        {
            "name" : "khop 6 v1",
            "primitives" : [
                {
                    "attributes" : {
                        "POSITION" : 31,
                        "NORMAL" : 32,
                        "TEXCOORD_0" : 33,
                        "JOINTS_0" : 34,
                        "WEIGHTS_0" : 35
                    },
                    "indices" : 36,
                    "material" : 5
                }
            ]
        }
    ],
    "skins" : [
        {
            "inverseBindMatrices" : 6,
            "joints" : [
                5,
                4,
                3,
                2,
                1,
                0
            ],
            "name" : "Armature"
        }
    ],
    "accessors" : [
        {
            "bufferView" : 0,
            "componentType" : 5126,
            "count" : 1238,
            "max" : [
                180,
                501,
                139.4810028076172
            ],
            "min" : [
                -180,
                61,
                -139.4810028076172
            ],
            "type" : "VEC3"
        },
        {
            "bufferView" : 1,
            "componentType" : 5126,
            "count" : 1238,
            "type" : "VEC3"
        },
        {
            "bufferView" : 2,
            "componentType" : 5126,
            "count" : 1238,
            "type" : "VEC2"
        },
        {
            "bufferView" : 3,
            "componentType" : 5121,
            "count" : 1238,
            "type" : "VEC4"
        },
        {
            "bufferView" : 4,
            "componentType" : 5126,
            "count" : 1238,
            "type" : "VEC4"
        },
        {
            "bufferView" : 5,
            "componentType" : 5123,
            "count" : 4152,
            "type" : "SCALAR"
        },
        {
            "bufferView" : 6,
            "componentType" : 5126,
            "count" : 6,
            "type" : "MAT4"
        },
        {
            "bufferView" : 7,
            "componentType" : 5126,
            "count" : 1566,
            "max" : [
                150,
                260,
                150
            ],
            "min" : [
                -150,
                1.1920875664372943e-07,
                -150
            ],
            "type" : "VEC3"
        },
        {
            "bufferView" : 8,
            "componentType" : 5126,
            "count" : 1566,
            "type" : "VEC3"
        },
        {
            "bufferView" : 9,
            "componentType" : 5126,
            "count" : 1566,
            "type" : "VEC2"
        },
        {
            "bufferView" : 10,
            "componentType" : 5121,
            "count" : 1566,
            "type" : "VEC4"
        },
        {
            "bufferView" : 11,
            "componentType" : 5126,
            "count" : 1566,
            "type" : "VEC4"
        },
        {
            "bufferView" : 12,
            "componentType" : 5123,
            "count" : 5502,
            "type" : "SCALAR"
        },
        {
            "bufferView" : 13,
            "componentType" : 5126,
            "count" : 962,
            "max" : [
                192,
                818.6893310546875,
                154.1371612548828
            ],
            "min" : [
                -188,
                300,
                -100
            ],
            "type" : "VEC3"
        },
        {
            "bufferView" : 14,
            "componentType" : 5126,
            "count" : 962,
            "type" : "VEC3"
        },
        {
            "bufferView" : 15,
            "componentType" : 5126,
            "count" : 962,
            "type" : "VEC2"
        },
        {
            "bufferView" : 16,
            "componentType" : 5121,
            "count" : 962,
            "type" : "VEC4"
        },
        {
            "bufferView" : 17,
            "componentType" : 5126,
            "count" : 962,
            "type" : "VEC4"
        },
        {
            "bufferView" : 18,
            "componentType" : 5123,
            "count" : 2694,
            "type" : "SCALAR"
        },
        {
            "bufferView" : 19,
            "componentType" : 5126,
            "count" : 1048,
            "max" : [
                139.9302978515625,
                845,
                224.3556671142578
            ],
            "min" : [
                -138.0697021484375,
                605,
                -18
            ],
            "type" : "VEC3"
        },
        {
            "bufferView" : 20,
            "componentType" : 5126,
            "count" : 1048,
            "type" : "VEC3"
        },
        {
            "bufferView" : 21,
            "componentType" : 5126,
            "count" : 1048,
            "type" : "VEC2"
        },
        {
            "bufferView" : 22,
            "componentType" : 5121,
            "count" : 1048,
            "type" : "VEC4"
        },
        {
            "bufferView" : 23,
            "componentType" : 5126,
            "count" : 1048,
            "type" : "VEC4"
        },
        {
            "bufferView" : 24,
            "componentType" : 5123,
            "count" : 3288,
            "type" : "SCALAR"
        },
        {
            "bufferView" : 25,
            "componentType" : 5126,
            "count" : 760,
            "max" : [
                87.5,
                835,
                354
            ],
            "min" : [
                -82.5,
                749,
                184
            ],
            "type" : "VEC3"
        },
        {
            "bufferView" : 26,
            "componentType" : 5126,
            "count" : 760,
            "type" : "VEC3"
        },
        {
            "bufferView" : 27,
            "componentType" : 5126,
            "count" : 760,
            "type" : "VEC2"
        },
        {
            "bufferView" : 28,
            "componentType" : 5121,
            "count" : 760,
            "type" : "VEC4"
        },
        {
            "bufferView" : 29,
            "componentType" : 5126,
            "count" : 760,
            "type" : "VEC4"
        },
        {
            "bufferView" : 30,
            "componentType" : 5123,
            "count" : 2220,
            "type" : "SCALAR"
        },
        {
            "bufferView" : 31,
            "componentType" : 5126,
            "count" : 356,
            "max" : [
                47.20000076293945,
                837,
                435
            ],
            "min" : [
                -42.79999923706055,
                747,
                275
            ],
            "type" : "VEC3"
        },
        {
            "bufferView" : 32,
            "componentType" : 5126,
            "count" : 356,
            "type" : "VEC3"
        },
        {
            "bufferView" : 33,
            "componentType" : 5126,
            "count" : 356,
            "type" : "VEC2"
        },
        {
            "bufferView" : 34,
            "componentType" : 5121,
            "count" : 356,
            "type" : "VEC4"
        },
        {
            "bufferView" : 35,
            "componentType" : 5126,
            "count" : 356,
            "type" : "VEC4"
        },
        {
            "bufferView" : 36,
            "componentType" : 5123,
            "count" : 1074,
            "type" : "SCALAR"
        }
    ],
    "bufferViews" : [
        {
            "buffer" : 0,
            "byteLength" : 14856,
            "byteOffset" : 0
        },
        {
            "buffer" : 0,
            "byteLength" : 14856,
            "byteOffset" : 14856
        },
        {
            "buffer" : 0,
            "byteLength" : 9904,
            "byteOffset" : 29712
        },
        {
            "buffer" : 0,
            "byteLength" : 4952,
            "byteOffset" : 39616
        },
        {
            "buffer" : 0,
            "byteLength" : 19808,
            "byteOffset" : 44568
        },
        {
            "buffer" : 0,
            "byteLength" : 8304,
            "byteOffset" : 64376
        },
        {
            "buffer" : 0,
            "byteLength" : 384,
            "byteOffset" : 72680
        },
        {
            "buffer" : 0,
            "byteLength" : 18792,
            "byteOffset" : 73064
        },
        {
            "buffer" : 0,
            "byteLength" : 18792,
            "byteOffset" : 91856
        },
        {
            "buffer" : 0,
            "byteLength" : 12528,
            "byteOffset" : 110648
        },
        {
            "buffer" : 0,
            "byteLength" : 6264,
            "byteOffset" : 123176
        },
        {
            "buffer" : 0,
            "byteLength" : 25056,
            "byteOffset" : 129440
        },
        {
            "buffer" : 0,
            "byteLength" : 11004,
            "byteOffset" : 154496
        },
        {
            "buffer" : 0,
            "byteLength" : 11544,
            "byteOffset" : 165500
        },
        {
            "buffer" : 0,
            "byteLength" : 11544,
            "byteOffset" : 177044
        },
        {
            "buffer" : 0,
            "byteLength" : 7696,
            "byteOffset" : 188588
        },
        {
            "buffer" : 0,
            "byteLength" : 3848,
            "byteOffset" : 196284
        },
        {
            "buffer" : 0,
            "byteLength" : 15392,
            "byteOffset" : 200132
        },
        {
            "buffer" : 0,
            "byteLength" : 5388,
            "byteOffset" : 215524
        },
        {
            "buffer" : 0,
            "byteLength" : 12576,
            "byteOffset" : 220912
        },
        {
            "buffer" : 0,
            "byteLength" : 12576,
            "byteOffset" : 233488
        },
        {
            "buffer" : 0,
            "byteLength" : 8384,
            "byteOffset" : 246064
        },
        {
            "buffer" : 0,
            "byteLength" : 4192,
            "byteOffset" : 254448
        },
        {
            "buffer" : 0,
            "byteLength" : 16768,
            "byteOffset" : 258640
        },
        {
            "buffer" : 0,
            "byteLength" : 6576,
            "byteOffset" : 275408
        },
        {
            "buffer" : 0,
            "byteLength" : 9120,
            "byteOffset" : 281984
        },
        {
            "buffer" : 0,
            "byteLength" : 9120,
            "byteOffset" : 291104
        },
        {
            "buffer" : 0,
            "byteLength" : 6080,
            "byteOffset" : 300224
        },
        {
            "buffer" : 0,
            "byteLength" : 3040,
            "byteOffset" : 306304
        },
        {
            "buffer" : 0,
            "byteLength" : 12160,
            "byteOffset" : 309344
        },
        {
            "buffer" : 0,
            "byteLength" : 4440,
            "byteOffset" : 321504
        },
        {
            "buffer" : 0,
            "byteLength" : 4272,
            "byteOffset" : 325944
        },
        {
            "buffer" : 0,
            "byteLength" : 4272,
            "byteOffset" : 330216
        },
        {
            "buffer" : 0,
            "byteLength" : 2848,
            "byteOffset" : 334488
        },
        {
            "buffer" : 0,
            "byteLength" : 1424,
            "byteOffset" : 337336
        },
        {
            "buffer" : 0,
            "byteLength" : 5696,
            "byteOffset" : 338760
        },
        {
            "buffer" : 0,
            "byteLength" : 2148,
            "byteOffset" : 344456
        }
    ],
    "buffers" : [
        {
            "byteLength" : 346604,
            "uri" : "data:application/octet-stream;base64,"
        }
    ]
}
