{
    "asset" : {
        "generator" : "Khronos glTF Blender I/O v1.7.33",
        "version" : "2.0"
    },
    "scene" : 0,
    "scenes" : [
        {
            "name" : "Scene",
            "nodes" : [
                12
            ]
        }
    ],
    "nodes" : [
        {
            "name" : "Bone.005",
            "rotation" : [
                -0.025904659181833267,
                2.539099505194202e-14,
                1.2352360023726305e-08,
                0.9996644258499146
            ],
            "scale" : [
                1,
                0.9999998807907104,
                0.9999999403953552
            ],
            "translation" : [
                -4.7235980105142517e-07,
                0.320766806602478,
                1.430200455843078e-07
            ]
        },
        {
            "children" : [
                0
            ],
            "name" : "Bone.004",
            "rotation" : [
                0.22955147922039032,
                2.1901117665300632e-14,
                -1.0945872475076612e-07,
                0.9732965230941772
            ],
            "translation" : [
                -1.935748485948352e-07,
                0.5656145811080933,
                -1.4456962560416287e-07
            ]
        },
        {
            "children" : [
                1
            ],
            "name" : "Bone.003",
            "rotation" : [
                0.46895432472229004,
                7.336759040299512e-07,
                -1.266452841264254e-06,
                0.8832224607467651
            ],
            "scale" : [
                1,
                1.0000001192092896,
                1.0000001192092896
            ],
            "translation" : [
                -4.1892889157679747e-07,
                1.006817102432251,
                -7.029953508208564e-08
            ]
        },
        {
            "children" : [
                2
            ],
            "name" : "Bone.002",
            "rotation" : [
                0.07987142354249954,
                3.964170502968045e-07,
                -6.536124175227087e-08,
                0.9968051910400391
            ],
            "scale" : [
                1,
                1.0000001192092896,
                1.0000001192092896
            ],
            "translation" : [
                -8.742278367890322e-08,
                1.2688020467758179,
                -5.641186362481676e-08
            ]
        },
        {
            "children" : [
                3
            ],
            "name" : "Bone.001",
            "rotation" : [
                0.7071068286895752,
                -5.955848791927565e-07,
                -6.463442332460545e-07,
                0.7071068286895752
            ],
            "translation" : [
                0,
                1,
                0
            ]
        },
        {
            "children" : [
                4
            ],
            "name" : "Bone",
            "translation" : [
                2.2719345092773438,
                0,
                0
            ]
        },
        {
            "mesh" : 0,
            "name" : "chan de 2 v1",
            "skin" : 0
        },
        {
            "mesh" : 1,
            "name" : "chan de v1",
            "rotation" : [
                0.7071068286895752,
                0,
                0,
                0.7071068286895752
            ],
            "scale" : [
                0.006321118678897619,
                0.006321118678897619,
                0.006321118678897619
            ],
            "translation" : [
                2.744248628616333,
                0.5200525522232056,
                0.0031727352179586887
            ]
        },
        {
            "mesh" : 2,
            "name" : "khop 3 v2",
            "skin" : 0
        },
        {
            "mesh" : 3,
            "name" : "khop 4 v3",
            "skin" : 0
        },
        {
            "mesh" : 4,
            "name" : "khop 5 v2",
            "skin" : 0
        },
        {
            "mesh" : 5,
            "name" : "khop 6 v1",
            "skin" : 0
        },
        {
            "children" : [
                6,
                7,
                8,
                9,
                10,
                11,
                5
            ],
            "name" : "Armature",
            "rotation" : [
                -0.7071068286895752,
                0,
                0,
                0.7071068286895752
            ],
            "scale" : [
                79.09991455078125,
                79.09991455078125,
                79.09991455078125
            ],
            "translation" : [
                0,
                -0.2509613037109375,
                70.5
            ]
        }
    ],
    "materials" : [
        {
            "doubleSided" : true,
            "name" : "Steel_-_Satin.001",
            "pbrMetallicRoughness" : {
                "baseColorFactor" : [
                    0.800000011920929,
                    0.800000011920929,
                    0.800000011920929,
                    1
                ],
                "metallicFactor" : 0,
                "roughnessFactor" : 0.5
            }
        },
        {
            "doubleSided" : true,
            "name" : "Steel_-_Satin.002",
            "pbrMetallicRoughness" : {
                "baseColorFactor" : [
                    0.800000011920929,
                    0.800000011920929,
                    0.800000011920929,
                    1
                ],
                "metallicFactor" : 0,
                "roughnessFactor" : 0.5
            }
        },
        {
            "doubleSided" : true,
            "name" : "Steel_-_Satin.003",
            "pbrMetallicRoughness" : {
                "baseColorFactor" : [
                    0.800000011920929,
                    0.800000011920929,
                    0.800000011920929,
                    1
                ],
                "metallicFactor" : 0,
                "roughnessFactor" : 0.5
            }
        },
        {
            "doubleSided" : true,
            "name" : "Steel_-_Satin.005",
            "pbrMetallicRoughness" : {
                "baseColorFactor" : [
                    0.800000011920929,
                    0.800000011920929,
                    0.800000011920929,
                    1
                ],
                "metallicFactor" : 0,
                "roughnessFactor" : 0.5
            }
        },
        {
            "doubleSided" : true,
            "name" : "Steel_-_Satin.004",
            "pbrMetallicRoughness" : {
                "baseColorFactor" : [
                    0.800000011920929,
                    0.800000011920929,
                    0.800000011920929,
                    1
                ],
                "metallicFactor" : 0,
                "roughnessFactor" : 0.5
            }
        },
        {
            "doubleSided" : true,
            "name" : "Steel_-_Satin.006",
            "pbrMetallicRoughness" : {
                "baseColorFactor" : [
                    0.800000011920929,
                    0.800000011920929,
                    0.800000011920929,
                    1
                ],
                "metallicFactor" : 0,
                "roughnessFactor" : 0.5
            }
        }
    ],
    "meshes" : [
        {
            "name" : "chan de 2 v1",
            "primitives" : [
                {
                    "attributes" : {
                        "POSITION" : 0,
                        "NORMAL" : 1,
                        "TEXCOORD_0" : 2,
                        "JOINTS_0" : 3,
                        "WEIGHTS_0" : 4
                    },
                    "indices" : 5,
                    "material" : 0
                }
            ]
        },
        {
            "name" : "chan de v1",
            "primitives" : [
                {
                    "attributes" : {
                        "POSITION" : 7,
                        "NORMAL" : 8,
                        "TEXCOORD_0" : 9,
                        "JOINTS_0" : 10,
                        "WEIGHTS_0" : 11
                    },
                    "indices" : 12,
                    "material" : 1
                }
            ]
        },
        {
            "name" : "khop 3 v2",
            "primitives" : [
                {
                    "attributes" : {
                        "POSITION" : 13,
                        "NORMAL" : 14,
                        "TEXCOORD_0" : 15,
                        "JOINTS_0" : 16,
                        "WEIGHTS_0" : 17
                    },
                    "indices" : 18,
                    "material" : 2
                }
            ]
        },
        {
            "name" : "khop 4 v3",
            "primitives" : [
                {
                    "attributes" : {
                        "POSITION" : 19,
                        "NORMAL" : 20,
                        "TEXCOORD_0" : 21,
                        "JOINTS_0" : 22,
                        "WEIGHTS_0" : 23
                    },
                    "indices" : 24,
                    "material" : 3
                }
            ]
        },
        {
            "name" : "khop 5 v2",
            "primitives" : [
                {
                    "attributes" : {
                        "POSITION" : 25,
                        "NORMAL" : 26,
                        "TEXCOORD_0" : 27,
                        "JOINTS_0" : 28,
                        "WEIGHTS_0" : 29
                    },
                    "indices" : 30,
                    "material" : 4
                }
            ]
        },
        {
            "name" : "khop 6 v1",
            "primitives" : [
                {
                    "attributes" : {
                        "POSITION" : 31,
                        "NORMAL" : 32,
                        "TEXCOORD_0" : 33,
                        "JOINTS_0" : 34,
                        "WEIGHTS_0" : 35
                    },
                    "indices" : 36,
                    "material" : 5
                }
            ]
        }
    ],
    "skins" : [
        {
            "inverseBindMatrices" : 6,
            "joints" : [
                5,
                4,
                3,
                2,
                1,
                0
            ],
            "name" : "Armature"
        }
    ],
    "accessors" : [
        {
            "bufferView" : 0,
            "componentType" : 5126,
            "count" : 1238,
            "max" : [
                224.72622680664062,
                124.99999237060547,
                26.670249938964844
            ],
            "min" : [
                134.72622680664062,
                14.999999046325684,
                -43.070247650146484
            ],
            "type" : "VEC3"
        },
        {
            "bufferView" : 1,
            "componentType" : 5126,
            "count" : 1238,
            "type" : "VEC3"
        },
        {
            "bufferView" : 2,
            "componentType" : 5126,
            "count" : 1238,
            "type" : "VEC2"
        },
        {
            "bufferView" : 3,
            "componentType" : 5121,
            "count" : 1238,
            "type" : "VEC4"
        },
        {
            "bufferView" : 4,
            "componentType" : 5126,
            "count" : 1238,
            "type" : "VEC4"
        },
        {
            "bufferView" : 5,
            "componentType" : 5123,
            "count" : 4152,
            "type" : "SCALAR"
        },
        {
            "bufferView" : 6,
            "componentType" : 5126,
            "count" : 6,
            "type" : "MAT4"
        },
        {
            "bufferView" : 7,
            "componentType" : 5126,
            "count" : 1566,
            "max" : [
                217.06983947753906,
                64.99999237060547,
                29.363889694213867
            ],
            "min" : [
                142.06983947753906,
                0,
                -45.636104583740234
            ],
            "type" : "VEC3"
        },
        {
            "bufferView" : 8,
            "componentType" : 5126,
            "count" : 1566,
            "type" : "VEC3"
        },
        {
            "bufferView" : 9,
            "componentType" : 5126,
            "count" : 1566,
            "type" : "VEC2"
        },
        {
            "bufferView" : 10,
            "componentType" : 5121,
            "count" : 1566,
            "type" : "VEC4"
        },
        {
            "bufferView" : 11,
            "componentType" : 5126,
            "count" : 1566,
            "type" : "VEC4"
        },
        {
            "bufferView" : 12,
            "componentType" : 5123,
            "count" : 5502,
            "type" : "SCALAR"
        },
        {
            "bufferView" : 13,
            "componentType" : 5126,
            "count" : 962,
            "max" : [
                227.49998474121094,
                204.6723175048828,
                30.53428840637207
            ],
            "min" : [
                132.49998474121094,
                74.99999237060547,
                -32.999996185302734
            ],
            "type" : "VEC3"
        },
        {
            "bufferView" : 14,
            "componentType" : 5126,
            "count" : 962,
            "type" : "VEC3"
        },
        {
            "bufferView" : 15,
            "componentType" : 5126,
            "count" : 962,
            "type" : "VEC2"
        },
        {
            "bufferView" : 16,
            "componentType" : 5121,
            "count" : 962,
            "type" : "VEC4"
        },
        {
            "bufferView" : 17,
            "componentType" : 5126,
            "count" : 962,
            "type" : "VEC4"
        },
        {
            "bufferView" : 18,
            "componentType" : 5123,
            "count" : 2694,
            "type" : "SCALAR"
        },
        {
            "bufferView" : 19,
            "componentType" : 5126,
            "count" : 1048,
            "max" : [
                214.46246337890625,
                210.99998474121094,
                47.21449279785156
            ],
            "min" : [
                144.96246337890625,
                150.99998474121094,
                -13.374421119689941
            ],
            "type" : "VEC3"
        },
        {
            "bufferView" : 20,
            "componentType" : 5126,
            "count" : 1048,
            "type" : "VEC3"
        },
        {
            "bufferView" : 21,
            "componentType" : 5126,
            "count" : 1048,
            "type" : "VEC2"
        },
        {
            "bufferView" : 22,
            "componentType" : 5121,
            "count" : 1048,
            "type" : "VEC4"
        },
        {
            "bufferView" : 23,
            "componentType" : 5126,
            "count" : 1048,
            "type" : "VEC4"
        },
        {
            "bufferView" : 24,
            "componentType" : 5123,
            "count" : 3288,
            "type" : "SCALAR"
        },
        {
            "bufferView" : 25,
            "componentType" : 5126,
            "count" : 760,
            "max" : [
                200.99998474121094,
                207.41641235351562,
                79.82659149169922
            ],
            "min" : [
                158.49998474121094,
                185.91641235351562,
                37.32659149169922
            ],
            "type" : "VEC3"
        },
        {
            "bufferView" : 26,
            "componentType" : 5126,
            "count" : 760,
            "type" : "VEC3"
        },
        {
            "bufferView" : 27,
            "componentType" : 5126,
            "count" : 760,
            "type" : "VEC2"
        },
        {
            "bufferView" : 28,
            "componentType" : 5121,
            "count" : 760,
            "type" : "VEC4"
        },
        {
            "bufferView" : 29,
            "componentType" : 5126,
            "count" : 760,
            "type" : "VEC4"
        },
        {
            "bufferView" : 30,
            "componentType" : 5123,
            "count" : 2220,
            "type" : "SCALAR"
        },
        {
            "bufferView" : 31,
            "componentType" : 5126,
            "count" : 356,
            "max" : [
                190.99998474121094,
                207.8877410888672,
                99.99999237060547
            ],
            "min" : [
                168.49998474121094,
                185.3877410888672,
                59.999996185302734
            ],
            "type" : "VEC3"
        },
        {
            "bufferView" : 32,
            "componentType" : 5126,
            "count" : 356,
            "type" : "VEC3"
        },
        {
            "bufferView" : 33,
            "componentType" : 5126,
            "count" : 356,
            "type" : "VEC2"
        },
        {
            "bufferView" : 34,
            "componentType" : 5121,
            "count" : 356,
            "type" : "VEC4"
        },
        {
            "bufferView" : 35,
            "componentType" : 5126,
            "count" : 356,
            "type" : "VEC4"
        },
        {
            "bufferView" : 36,
            "componentType" : 5123,
            "count" : 1074,
            "type" : "SCALAR"
        }
    ],
    "bufferViews" : [
        {
            "buffer" : 0,
            "byteLength" : 14856,
            "byteOffset" : 0
        },
        {
            "buffer" : 0,
            "byteLength" : 14856,
            "byteOffset" : 14856
        },
        {
            "buffer" : 0,
            "byteLength" : 9904,
            "byteOffset" : 29712
        },
        {
            "buffer" : 0,
            "byteLength" : 4952,
            "byteOffset" : 39616
        },
        {
            "buffer" : 0,
            "byteLength" : 19808,
            "byteOffset" : 44568
        },
        {
            "buffer" : 0,
            "byteLength" : 8304,
            "byteOffset" : 64376
        },
        {
            "buffer" : 0,
            "byteLength" : 384,
            "byteOffset" : 72680
        },
        {
            "buffer" : 0,
            "byteLength" : 18792,
            "byteOffset" : 73064
        },
        {
            "buffer" : 0,
            "byteLength" : 18792,
            "byteOffset" : 91856
        },
        {
            "buffer" : 0,
            "byteLength" : 12528,
            "byteOffset" : 110648
        },
        {
            "buffer" : 0,
            "byteLength" : 6264,
            "byteOffset" : 123176
        },
        {
            "buffer" : 0,
            "byteLength" : 25056,
            "byteOffset" : 129440
        },
        {
            "buffer" : 0,
            "byteLength" : 11004,
            "byteOffset" : 154496
        },
        {
            "buffer" : 0,
            "byteLength" : 11544,
            "byteOffset" : 165500
        },
        {
            "buffer" : 0,
            "byteLength" : 11544,
            "byteOffset" : 177044
        },
        {
            "buffer" : 0,
            "byteLength" : 7696,
            "byteOffset" : 188588
        },
        {
            "buffer" : 0,
            "byteLength" : 3848,
            "byteOffset" : 196284
        },
        {
            "buffer" : 0,
            "byteLength" : 15392,
            "byteOffset" : 200132
        },
        {
            "buffer" : 0,
            "byteLength" : 5388,
            "byteOffset" : 215524
        },
        {
            "buffer" : 0,
            "byteLength" : 12576,
            "byteOffset" : 220912
        },
        {
            "buffer" : 0,
            "byteLength" : 12576,
            "byteOffset" : 233488
        },
        {
            "buffer" : 0,
            "byteLength" : 8384,
            "byteOffset" : 246064
        },
        {
            "buffer" : 0,
            "byteLength" : 4192,
            "byteOffset" : 254448
        },
        {
            "buffer" : 0,
            "byteLength" : 16768,
            "byteOffset" : 258640
        },
        {
            "buffer" : 0,
            "byteLength" : 6576,
            "byteOffset" : 275408
        },
        {
            "buffer" : 0,
            "byteLength" : 9120,
            "byteOffset" : 281984
        },
        {
            "buffer" : 0,
            "byteLength" : 9120,
            "byteOffset" : 291104
        },
        {
            "buffer" : 0,
            "byteLength" : 6080,
            "byteOffset" : 300224
        },
        {
            "buffer" : 0,
            "byteLength" : 3040,
            "byteOffset" : 306304
        },
        {
            "buffer" : 0,
            "byteLength" : 12160,
            "byteOffset" : 309344
        },
        {
            "buffer" : 0,
            "byteLength" : 4440,
            "byteOffset" : 321504
        },
        {
            "buffer" : 0,
            "byteLength" : 4272,
            "byteOffset" : 325944
        },
        {
            "buffer" : 0,
            "byteLength" : 4272,
            "byteOffset" : 330216
        },
        {
            "buffer" : 0,
            "byteLength" : 2848,
            "byteOffset" : 334488
        },
        {
            "buffer" : 0,
            "byteLength" : 1424,
            "byteOffset" : 337336
        },
        {
            "buffer" : 0,
            "byteLength" : 5696,
            "byteOffset" : 338760
        },
        {
            "buffer" : 0,
            "byteLength" : 2148,
            "byteOffset" : 344456
        }
    ],
    "buffers" : [
        {
            "byteLength" : 346604,
            "uri" : "data:application/octet-stream;base64,"
        }
    ]
}
