{
    "asset" : {
        "generator" : "Khronos glTF Blender I/O v1.7.33",
        "version" : "2.0"
    },
    "scene" : 0,
    "scenes" : [
        {
            "name" : "Scene",
            "nodes" : [
                12
            ]
        }
    ],
    "nodes" : [
        {
            "name" : "Bone.005",
            "rotation" : [
                -0.005611731670796871,
                -2.957923416293563e-14,
                9.365612285705538e-09,
                0.9999842643737793
            ],
            "scale" : [
                1,
                0.9999998807907104,
                0.9999999403953552
            ],
            "translation" : [
                -8.773470773666692e-13,
                0.3798148036003113,
                -1.4033128081791801e-07
            ]
        },
        {
            "children" : [
                0
            ],
            "name" : "Bone.004",
            "rotation" : [
                0.1949327290058136,
                -3.622199603112034e-15,
                -3.2532915383853833e-07,
                0.9808166027069092
            ],
            "translation" : [
                -4.662987660927764e-13,
                0.6400812864303589,
                9.861012273404413e-08
            ]
        },
        {
            "children" : [
                1
            ],
            "name" : "Bone.003",
            "rotation" : [
                0.4835219979286194,
                -8.019997860264638e-12,
                -8.069598038673576e-07,
                0.875332236289978
            ],
            "scale" : [
                1,
                0.9999999403953552,
                0.9999998807907104
            ],
            "translation" : [
                -6.9626048633184e-13,
                1.1942527294158936,
                3.753018518182216e-08
            ]
        },
        {
            "children" : [
                2
            ],
            "name" : "Bone.002",
            "rotation" : [
                0.07537401467561722,
                -7.884952424319636e-07,
                -6.619099224280944e-08,
                0.9971554279327393
            ],
            "translation" : [
                1.9054121344966313e-13,
                1.4706758260726929,
                -5.8250137158211146e-08
            ]
        },
        {
            "children" : [
                3
            ],
            "name" : "Bone.001",
            "rotation" : [
                0.7071068286895752,
                -3.0908616110991716e-08,
                -3.0908616110991716e-08,
                0.7071068286895752
            ],
            "scale" : [
                1,
                0.9999998807907104,
                0.9999998807907104
            ],
            "translation" : [
                0,
                1,
                0
            ]
        },
        {
            "children" : [
                4
            ],
            "name" : "Bone"
        },
        {
            "mesh" : 0,
            "name" : "chan de 2 v1",
            "skin" : 0
        },
        {
            "mesh" : 1,
            "name" : "chan de v1",
            "skin" : 0
        },
        {
            "mesh" : 2,
            "name" : "khop 3 v2",
            "skin" : 0
        },
        {
            "mesh" : 3,
            "name" : "khop 4 v3",
            "skin" : 0
        },
        {
            "mesh" : 4,
            "name" : "khop 5 v2",
            "skin" : 0
        },
        {
            "mesh" : 5,
            "name" : "khop 6 v1",
            "skin" : 0
        },
        {
            "children" : [
                6,
                7,
                8,
                9,
                10,
                11,
                5
            ],
            "name" : "Armature",
            "rotation" : [
                -0.7071068286895752,
                0,
                0,
                0.7071068286895752
            ],
            "scale" : [
                13.496520042419434,
                13.496520042419434,
                13.496520042419434
            ],
            "translation" : [
                0,
                0.047214508056640625,
                12.50826644897461
            ]
        }
    ],
    "materials" : [
        {
            "doubleSided" : true,
            "name" : "Steel_-_Satin.001",
            "pbrMetallicRoughness" : {
                "baseColorFactor" : [
                    0.800000011920929,
                    0.800000011920929,
                    0.800000011920929,
                    1
                ],
                "metallicFactor" : 0,
                "roughnessFactor" : 0.5
            }
        },
        {
            "doubleSided" : true,
            "name" : "Steel_-_Satin.002",
            "pbrMetallicRoughness" : {
                "baseColorFactor" : [
                    0.800000011920929,
                    0.800000011920929,
                    0.800000011920929,
                    1
                ],
                "metallicFactor" : 0,
                "roughnessFactor" : 0.5
            }
        },
        {
            "doubleSided" : true,
            "name" : "Steel_-_Satin.003",
            "pbrMetallicRoughness" : {
                "baseColorFactor" : [
                    0.800000011920929,
                    0.800000011920929,
                    0.800000011920929,
                    1
                ],
                "metallicFactor" : 0,
                "roughnessFactor" : 0.5
            }
        },
        {
            "doubleSided" : true,
            "name" : "Steel_-_Satin.005",
            "pbrMetallicRoughness" : {
                "baseColorFactor" : [
                    0.800000011920929,
                    0.800000011920929,
                    0.800000011920929,
                    1
                ],
                "metallicFactor" : 0,
                "roughnessFactor" : 0.5
            }
        },
        {
            "doubleSided" : true,
            "name" : "Steel_-_Satin.004",
            "pbrMetallicRoughness" : {
                "baseColorFactor" : [
                    0.800000011920929,
                    0.800000011920929,
                    0.800000011920929,
                    1
                ],
                "metallicFactor" : 0,
                "roughnessFactor" : 0.5
            }
        },
        {
            "doubleSided" : true,
            "name" : "Steel_-_Satin.006",
            "pbrMetallicRoughness" : {
                "baseColorFactor" : [
                    0.800000011920929,
                    0.800000011920929,
                    0.800000011920929,
                    1
                ],
                "metallicFactor" : 0,
                "roughnessFactor" : 0.5
            }
        }
    ],
    "meshes" : [
        {
            "name" : "chan de 2 v1",
            "primitives" : [
                {
                    "attributes" : {
                        "POSITION" : 0,
                        "NORMAL" : 1,
                        "TEXCOORD_0" : 2,
                        "JOINTS_0" : 3,
                        "WEIGHTS_0" : 4
                    },
                    "indices" : 5,
                    "material" : 0
                }
            ]
        },
        {
            "name" : "chan de v1",
            "primitives" : [
                {
                    "attributes" : {
                        "POSITION" : 7,
                        "NORMAL" : 8,
                        "TEXCOORD_0" : 9,
                        "JOINTS_0" : 10,
                        "WEIGHTS_0" : 11
                    },
                    "indices" : 12,
                    "material" : 1
                }
            ]
        },
        {
            "name" : "khop 3 v2",
            "primitives" : [
                {
                    "attributes" : {
                        "POSITION" : 13,
                        "NORMAL" : 14,
                        "TEXCOORD_0" : 15,
                        "JOINTS_0" : 16,
                        "WEIGHTS_0" : 17
                    },
                    "indices" : 18,
                    "material" : 2
                }
            ]
        },
        {
            "name" : "khop 4 v3",
            "primitives" : [
                {
                    "attributes" : {
                        "POSITION" : 19,
                        "NORMAL" : 20,
                        "TEXCOORD_0" : 21,
                        "JOINTS_0" : 22,
                        "WEIGHTS_0" : 23
                    },
                    "indices" : 24,
                    "material" : 3
                }
            ]
        },
        {
            "name" : "khop 5 v2",
            "primitives" : [
                {
                    "attributes" : {
                        "POSITION" : 25,
                        "NORMAL" : 26,
                        "TEXCOORD_0" : 27,
                        "JOINTS_0" : 28,
                        "WEIGHTS_0" : 29
                    },
                    "indices" : 30,
                    "material" : 4
                }
            ]
        },
        {
            "name" : "khop 6 v1",
            "primitives" : [
                {
                    "attributes" : {
                        "POSITION" : 31,
                        "NORMAL" : 32,
                        "TEXCOORD_0" : 33,
                        "JOINTS_0" : 34,
                        "WEIGHTS_0" : 35
                    },
                    "indices" : 36,
                    "material" : 5
                }
            ]
        }
    ],
    "skins" : [
        {
            "inverseBindMatrices" : 6,
            "joints" : [
                5,
                4,
                3,
                2,
                1,
                0
            ],
            "name" : "Armature"
        }
    ],
    "accessors" : [
        {
            "bufferView" : 0,
            "componentType" : 5126,
            "count" : 1238,
            "max" : [
                8.999999046325684,
                24.999998092651367,
                5.9740495681762695
            ],
            "min" : [
                -8.999999046325684,
                2.999999761581421,
                -7.9740495681762695
            ],
            "type" : "VEC3"
        },
        {
            "bufferView" : 1,
            "componentType" : 5126,
            "count" : 1238,
            "type" : "VEC3"
        },
        {
            "bufferView" : 2,
            "componentType" : 5126,
            "count" : 1238,
            "type" : "VEC2"
        },
        {
            "bufferView" : 3,
            "componentType" : 5121,
            "count" : 1238,
            "type" : "VEC4"
        },
        {
            "bufferView" : 4,
            "componentType" : 5126,
            "count" : 1238,
            "type" : "VEC4"
        },
        {
            "bufferView" : 5,
            "componentType" : 5123,
            "count" : 4152,
            "type" : "SCALAR"
        },
        {
            "bufferView" : 6,
            "componentType" : 5126,
            "count" : 6,
            "type" : "MAT4"
        },
        {
            "bufferView" : 7,
            "componentType" : 5126,
            "count" : 1566,
            "max" : [
                7.499999523162842,
                12.999999046325684,
                6.499999523162842
            ],
            "min" : [
                -7.499999523162842,
                3.7252601003956443e-09,
                -8.5
            ],
            "type" : "VEC3"
        },
        {
            "bufferView" : 8,
            "componentType" : 5126,
            "count" : 1566,
            "type" : "VEC3"
        },
        {
            "bufferView" : 9,
            "componentType" : 5126,
            "count" : 1566,
            "type" : "VEC2"
        },
        {
            "bufferView" : 10,
            "componentType" : 5121,
            "count" : 1566,
            "type" : "VEC4"
        },
        {
            "bufferView" : 11,
            "componentType" : 5126,
            "count" : 1566,
            "type" : "VEC4"
        },
        {
            "bufferView" : 12,
            "componentType" : 5123,
            "count" : 5502,
            "type" : "SCALAR"
        },
        {
            "bufferView" : 13,
            "componentType" : 5126,
            "count" : 962,
            "max" : [
                9.499999046325684,
                40.93446350097656,
                6.706857681274414
            ],
            "min" : [
                -9.499999046325684,
                14.999999046325684,
                -5.999999523162842
            ],
            "type" : "VEC3"
        },
        {
            "bufferView" : 14,
            "componentType" : 5126,
            "count" : 962,
            "type" : "VEC3"
        },
        {
            "bufferView" : 15,
            "componentType" : 5126,
            "count" : 962,
            "type" : "VEC2"
        },
        {
            "bufferView" : 16,
            "componentType" : 5121,
            "count" : 962,
            "type" : "VEC4"
        },
        {
            "bufferView" : 17,
            "componentType" : 5126,
            "count" : 962,
            "type" : "VEC4"
        },
        {
            "bufferView" : 18,
            "componentType" : 5123,
            "count" : 2694,
            "type" : "SCALAR"
        },
        {
            "bufferView" : 19,
            "componentType" : 5126,
            "count" : 1048,
            "max" : [
                6.899999618530273,
                42.19999694824219,
                10.117782592773438
            ],
            "min" : [
                -6.999999523162842,
                30.19999885559082,
                -1.9999998807907104
            ],
            "type" : "VEC3"
        },
        {
            "bufferView" : 20,
            "componentType" : 5126,
            "count" : 1048,
            "type" : "VEC3"
        },
        {
            "bufferView" : 21,
            "componentType" : 5126,
            "count" : 1048,
            "type" : "VEC2"
        },
        {
            "bufferView" : 22,
            "componentType" : 5121,
            "count" : 1048,
            "type" : "VEC4"
        },
        {
            "bufferView" : 23,
            "componentType" : 5126,
            "count" : 1048,
            "type" : "VEC4"
        },
        {
            "bufferView" : 24,
            "componentType" : 5123,
            "count" : 3288,
            "type" : "SCALAR"
        },
        {
            "bufferView" : 25,
            "componentType" : 5126,
            "count" : 760,
            "max" : [
                3.999999761581421,
                41.499996185302734,
                16.499998092651367
            ],
            "min" : [
                -4.499999523162842,
                37.19999694824219,
                7.999999046325684
            ],
            "type" : "VEC3"
        },
        {
            "bufferView" : 26,
            "componentType" : 5126,
            "count" : 760,
            "type" : "VEC3"
        },
        {
            "bufferView" : 27,
            "componentType" : 5126,
            "count" : 760,
            "type" : "VEC2"
        },
        {
            "bufferView" : 28,
            "componentType" : 5121,
            "count" : 760,
            "type" : "VEC4"
        },
        {
            "bufferView" : 29,
            "componentType" : 5126,
            "count" : 760,
            "type" : "VEC4"
        },
        {
            "bufferView" : 30,
            "componentType" : 5123,
            "count" : 2220,
            "type" : "SCALAR"
        },
        {
            "bufferView" : 31,
            "componentType" : 5126,
            "count" : 356,
            "max" : [
                1.9999998807907104,
                41.599998474121094,
                20.499998092651367
            ],
            "min" : [
                -2.499999761581421,
                37.09999465942383,
                12.499999046325684
            ],
            "type" : "VEC3"
        },
        {
            "bufferView" : 32,
            "componentType" : 5126,
            "count" : 356,
            "type" : "VEC3"
        },
        {
            "bufferView" : 33,
            "componentType" : 5126,
            "count" : 356,
            "type" : "VEC2"
        },
        {
            "bufferView" : 34,
            "componentType" : 5121,
            "count" : 356,
            "type" : "VEC4"
        },
        {
            "bufferView" : 35,
            "componentType" : 5126,
            "count" : 356,
            "type" : "VEC4"
        },
        {
            "bufferView" : 36,
            "componentType" : 5123,
            "count" : 1074,
            "type" : "SCALAR"
        }
    ],
    "bufferViews" : [
        {
            "buffer" : 0,
            "byteLength" : 14856,
            "byteOffset" : 0
        },
        {
            "buffer" : 0,
            "byteLength" : 14856,
            "byteOffset" : 14856
        },
        {
            "buffer" : 0,
            "byteLength" : 9904,
            "byteOffset" : 29712
        },
        {
            "buffer" : 0,
            "byteLength" : 4952,
            "byteOffset" : 39616
        },
        {
            "buffer" : 0,
            "byteLength" : 19808,
            "byteOffset" : 44568
        },
        {
            "buffer" : 0,
            "byteLength" : 8304,
            "byteOffset" : 64376
        },
        {
            "buffer" : 0,
            "byteLength" : 384,
            "byteOffset" : 72680
        },
        {
            "buffer" : 0,
            "byteLength" : 18792,
            "byteOffset" : 73064
        },
        {
            "buffer" : 0,
            "byteLength" : 18792,
            "byteOffset" : 91856
        },
        {
            "buffer" : 0,
            "byteLength" : 12528,
            "byteOffset" : 110648
        },
        {
            "buffer" : 0,
            "byteLength" : 6264,
            "byteOffset" : 123176
        },
        {
            "buffer" : 0,
            "byteLength" : 25056,
            "byteOffset" : 129440
        },
        {
            "buffer" : 0,
            "byteLength" : 11004,
            "byteOffset" : 154496
        },
        {
            "buffer" : 0,
            "byteLength" : 11544,
            "byteOffset" : 165500
        },
        {
            "buffer" : 0,
            "byteLength" : 11544,
            "byteOffset" : 177044
        },
        {
            "buffer" : 0,
            "byteLength" : 7696,
            "byteOffset" : 188588
        },
        {
            "buffer" : 0,
            "byteLength" : 3848,
            "byteOffset" : 196284
        },
        {
            "buffer" : 0,
            "byteLength" : 15392,
            "byteOffset" : 200132
        },
        {
            "buffer" : 0,
            "byteLength" : 5388,
            "byteOffset" : 215524
        },
        {
            "buffer" : 0,
            "byteLength" : 12576,
            "byteOffset" : 220912
        },
        {
            "buffer" : 0,
            "byteLength" : 12576,
            "byteOffset" : 233488
        },
        {
            "buffer" : 0,
            "byteLength" : 8384,
            "byteOffset" : 246064
        },
        {
            "buffer" : 0,
            "byteLength" : 4192,
            "byteOffset" : 254448
        },
        {
            "buffer" : 0,
            "byteLength" : 16768,
            "byteOffset" : 258640
        },
        {
            "buffer" : 0,
            "byteLength" : 6576,
            "byteOffset" : 275408
        },
        {
            "buffer" : 0,
            "byteLength" : 9120,
            "byteOffset" : 281984
        },
        {
            "buffer" : 0,
            "byteLength" : 9120,
            "byteOffset" : 291104
        },
        {
            "buffer" : 0,
            "byteLength" : 6080,
            "byteOffset" : 300224
        },
        {
            "buffer" : 0,
            "byteLength" : 3040,
            "byteOffset" : 306304
        },
        {
            "buffer" : 0,
            "byteLength" : 12160,
            "byteOffset" : 309344
        },
        {
            "buffer" : 0,
            "byteLength" : 4440,
            "byteOffset" : 321504
        },
        {
            "buffer" : 0,
            "byteLength" : 4272,
            "byteOffset" : 325944
        },
        {
            "buffer" : 0,
            "byteLength" : 4272,
            "byteOffset" : 330216
        },
        {
            "buffer" : 0,
            "byteLength" : 2848,
            "byteOffset" : 334488
        },
        {
            "buffer" : 0,
            "byteLength" : 1424,
            "byteOffset" : 337336
        },
        {
            "buffer" : 0,
            "byteLength" : 5696,
            "byteOffset" : 338760
        },
        {
            "buffer" : 0,
            "byteLength" : 2148,
            "byteOffset" : 344456
        }
    ],
    "buffers" : [
        {
            "byteLength" : 346604,
            "uri" : "data:application/octet-stream;base64,"
        }
    ]
}
